<svg width="132" height="32" viewBox="0 0 132 32" fill="none" xmlns="http://www.w3.org/2000/svg">
<path d="M35.7612 23.1256C37.3723 23.1256 38.2119 22.6354 38.2119 21.6773C38.2119 20.7193 37.3723 20.2291 35.7612 20.2291H29.3623V23.1256H35.7612ZM29.3623 31.7705H26.4352V17.3549H36.2377C39.4826 17.3549 41.139 18.7808 41.139 21.6773C41.139 24.5515 39.4826 25.9998 36.2377 25.9998H29.3623V31.7705ZM2.94985 31.7705H0V17.3549H2.94985V31.7705ZM96.9592 17.3549H99.8864V26.9579C99.8864 30.1663 98.2526 31.7705 94.9851 31.7705H90.0838C86.8163 31.7705 85.1825 30.1663 85.1825 26.9579V17.3549H88.1324V26.5791C88.1324 28.1165 88.8812 28.8963 90.4696 28.8963H94.5766C96.1423 28.8963 96.9365 28.1165 96.9365 26.5791L96.9592 17.3549ZM71.0006 23.1256C72.6116 23.1256 73.4512 22.6354 73.4512 21.6773C73.4512 20.7193 72.6343 20.2291 71.0006 20.2291H64.6017V23.1256H71.0006ZM66.0993 25.9998H64.6017V31.7705H61.6972V17.3549H71.4998C74.7446 17.3549 76.401 18.7808 76.401 21.6773C76.401 24.5515 74.7446 25.9998 71.4998 25.9998H70.5014L77.3541 31.7705H72.952L66.0993 25.9998ZM82.2554 31.7705H79.3055V17.3549H82.2554V31.7705ZM100.976 31.7928L105.809 17.3549H108.736L103.925 31.7928H100.976ZM115.679 31.7928H112.73L117.54 17.3549H120.49L115.679 31.7928ZM106.875 31.7928L111.686 17.3549H114.613L109.802 31.7705L106.875 31.7928ZM4.96936 31.8374L9.77988 17.3994H12.7297L7.91921 31.8374H4.96936ZM19.6505 31.8374H16.7007L21.5112 17.3994H24.4384L19.6505 31.8374ZM10.8464 31.8374L15.6569 17.3994H18.584L13.7735 31.8374H10.8464Z" fill="#333333"/>
<path d="M43.8247 32V29.08H58.5084V32H43.8247Z" fill="#333333"/>
<path d="M43.8247 23.2175H58.5084V26.1374H43.8247V23.2175Z" fill="#333333"/>
<path d="M43.8247 17.3775H58.5084V20.2975H43.8247V17.3775Z" fill="#333333"/>
<path d="M0.855478 5.47921C0.734989 5.47921 0.670727 5.4591 0.662695 5.41887C0.654662 5.37864 0.650646 5.31025 0.650646 5.2137V0.687918C0.650646 0.663781 0.650646 0.619529 0.650646 0.555162C0.658678 0.490796 0.706874 0.458612 0.795233 0.458612H1.91579C2.42185 0.458612 2.83955 0.543094 3.16889 0.712056C3.49822 0.872973 3.7392 1.13044 3.89182 1.48446C4.05248 1.83043 4.1328 2.28502 4.1328 2.84822C4.1328 3.34707 4.07256 3.76545 3.95207 4.10337C3.83961 4.43325 3.67896 4.69877 3.47011 4.89991C3.26929 5.10106 3.03635 5.2499 2.77127 5.34645C2.50619 5.43496 2.22505 5.47921 1.92784 5.47921H0.855478ZM0.518107 8.90673V0.651713C0.518107 0.587346 0.530156 0.539071 0.554254 0.506887C0.586384 0.474704 0.642613 0.458612 0.72294 0.458612H1.30129C1.39768 0.458612 1.45391 0.490796 1.46998 0.555162C1.48604 0.619529 1.49408 0.651713 1.49408 0.651713V8.71363C1.49408 8.778 1.47801 8.82225 1.44588 8.84639C1.42178 8.87053 1.34145 8.88662 1.2049 8.89467C1.07638 8.90271 0.847446 8.90673 0.518107 8.90673ZM1.46998 4.57405H2.02423C2.24915 4.57405 2.4339 4.51371 2.57848 4.39302C2.7311 4.27234 2.84758 4.07924 2.92791 3.81372C3.00823 3.54017 3.0484 3.1781 3.0484 2.72754C3.0484 2.44593 3.02028 2.20053 2.96405 1.99134C2.90782 1.77411 2.80742 1.60917 2.66283 1.49652C2.52627 1.37584 2.3375 1.31549 2.09652 1.31549H1.46998V4.57405Z" fill="#333333"/>
<path d="M6.4143 9.02742C6.18939 9.02742 5.9725 9.00731 5.76365 8.96708C5.56284 8.9349 5.3821 8.85846 5.22145 8.73777C5.0608 8.60904 4.93227 8.42399 4.83588 8.18261C4.73949 7.94124 4.69129 7.61136 4.69129 7.19297C4.69129 6.77459 4.73547 6.43667 4.82383 6.1792C4.91219 5.91369 5.03268 5.71254 5.1853 5.57576C5.33792 5.43094 5.51063 5.33439 5.70341 5.28611C5.89619 5.23784 6.09299 5.2137 6.29381 5.2137C6.42233 5.2137 6.57094 5.22577 6.73962 5.24991C6.91634 5.27404 7.06495 5.31427 7.18544 5.37059C7.18544 5.37059 7.18544 5.31427 7.18544 5.20163C7.18544 5.08899 7.18544 4.96025 7.18544 4.81543C7.18544 4.66256 7.18544 4.5298 7.18544 4.41716C7.18544 4.22406 7.1533 4.07924 7.08904 3.98269C7.03281 3.87809 6.94847 3.80568 6.83601 3.76545C6.73159 3.71717 6.59905 3.69304 6.4384 3.69304C6.12512 3.69304 5.8239 3.7212 5.53472 3.77752C5.24555 3.83384 5.0126 3.89821 4.83588 3.97062C4.77965 3.87407 4.74351 3.77752 4.72744 3.68097C4.71138 3.57637 4.70334 3.48385 4.70334 3.40339C4.70334 3.34707 4.71138 3.28672 4.72744 3.22236C4.75154 3.15799 4.78769 3.10971 4.83588 3.07753C4.94031 3.01316 5.15719 2.94477 5.48653 2.87236C5.81587 2.7919 6.20947 2.75167 6.66733 2.75167C7.18945 2.75167 7.56699 2.86029 7.79993 3.07753C8.04091 3.29477 8.1614 3.67694 8.1614 4.22406V4.8637C8.1614 5.32232 8.15739 5.78495 8.14935 6.25161C8.14935 6.71022 8.14534 7.1447 8.13731 7.55504C8.12927 7.95733 8.11321 8.31134 8.08911 8.61709C7.92846 8.71364 7.70756 8.80616 7.42641 8.89467C7.14527 8.98317 6.8079 9.02742 6.4143 9.02742ZM6.51069 8.20675C6.63921 8.20675 6.76372 8.18663 6.88421 8.1464C7.0047 8.10618 7.08904 8.0579 7.13724 8.00158C7.1533 7.87285 7.16134 7.69584 7.16134 7.47055C7.16937 7.24527 7.17339 7.00792 7.17339 6.7585C7.18142 6.50908 7.18544 6.27575 7.18544 6.05851C7.10511 6.01828 7.00872 5.99012 6.89626 5.97403C6.79183 5.95794 6.69946 5.94989 6.61913 5.94989C6.49061 5.94989 6.37012 5.96598 6.25766 5.99817C6.15324 6.0223 6.06086 6.07863 5.98054 6.16713C5.90021 6.24759 5.83595 6.36828 5.78775 6.52919C5.73956 6.69011 5.71546 6.90332 5.71546 7.16884C5.71546 7.38607 5.73152 7.56308 5.76365 7.69986C5.80382 7.83664 5.86005 7.94526 5.93234 8.02572C6.00463 8.09813 6.08898 8.1464 6.18537 8.17054C6.28176 8.19468 6.3902 8.20675 6.51069 8.20675Z" fill="#333333"/>
<path d="M10.3364 9.02742C10.0874 9.02742 9.85448 8.99524 9.63759 8.93087C9.42874 8.87455 9.25604 8.79409 9.11949 8.6895C8.99096 8.57686 8.9267 8.45617 8.9267 8.32744C8.9267 8.26307 8.93875 8.17456 8.96285 8.06192C8.99498 7.94928 9.04318 7.84066 9.10744 7.73607C9.27612 7.8648 9.46489 7.97342 9.67374 8.06192C9.89062 8.14238 10.1035 8.18261 10.3123 8.18261C10.4569 8.18261 10.5975 8.15847 10.7341 8.1102C10.8786 8.05388 10.9991 7.9533 11.0955 7.80848C11.1919 7.66365 11.2401 7.45044 11.2401 7.16884C11.2401 6.82286 11.1598 6.57344 10.9991 6.42057C10.8385 6.2677 10.6095 6.19127 10.3123 6.19127H9.83038C9.66972 6.19127 9.5894 6.10276 9.5894 5.92575V5.39473H10.6136C10.7742 5.23381 10.8827 5.0729 10.9389 4.91198C11.0031 4.74302 11.0353 4.56601 11.0353 4.38095C11.0353 4.13153 10.975 3.93843 10.8545 3.80166C10.7421 3.65683 10.5613 3.58442 10.3123 3.58442C10.1115 3.58442 9.92275 3.62867 9.74603 3.71717C9.57735 3.79763 9.42473 3.89418 9.28817 4.00682C9.22391 3.91832 9.1717 3.82982 9.13154 3.74131C9.09137 3.64476 9.07129 3.56028 9.07129 3.48787C9.07129 3.39132 9.11547 3.28672 9.20383 3.17408C9.30022 3.06144 9.44883 2.96489 9.64964 2.88443C9.85046 2.79593 10.1155 2.75167 10.4449 2.75167C10.975 2.75167 11.3646 2.87236 11.6136 3.11374C11.8626 3.35511 11.9871 3.68499 11.9871 4.10337C11.9871 4.40107 11.9269 4.67865 11.8064 4.93612C11.694 5.19358 11.5333 5.41082 11.3245 5.58783C11.6217 5.7407 11.8466 5.93782 11.9992 6.1792C12.1518 6.41253 12.2281 6.73436 12.2281 7.1447C12.2281 7.45044 12.1839 7.71997 12.0956 7.9533C12.0072 8.18663 11.8787 8.38376 11.71 8.54467C11.5494 8.70559 11.3526 8.82628 11.1196 8.90673C10.8947 8.98719 10.6336 9.02742 10.3364 9.02742Z" fill="#333333"/>
<path d="M13.6027 11.2843C13.434 11.2843 13.3135 11.2521 13.2412 11.1877C13.1689 11.1314 13.1327 11.0228 13.1327 10.8619V3.23442C13.3737 3.08155 13.6468 2.96489 13.9521 2.88443C14.2573 2.79593 14.5706 2.75167 14.8919 2.75167C15.2935 2.75167 15.6389 2.82409 15.9281 2.96891C16.2253 3.10569 16.4542 3.35913 16.6149 3.72924C16.7756 4.09131 16.8559 4.60222 16.8559 5.26197C16.8559 5.90564 16.8197 6.45276 16.7474 6.90332C16.6751 7.34584 16.5788 7.70791 16.4583 7.98951C16.3378 8.27111 16.1972 8.48835 16.0365 8.64122C15.8839 8.78605 15.7233 8.88662 15.5546 8.94294C15.3939 8.99926 15.2293 9.02742 15.0606 9.02742C14.8437 9.02742 14.6509 8.99524 14.4822 8.93087C14.3216 8.86651 14.1971 8.78605 14.1087 8.6895V11.1998C14.0284 11.2239 13.944 11.244 13.8557 11.2601C13.7673 11.2762 13.683 11.2843 13.6027 11.2843ZM14.7594 8.1464C14.8557 8.1464 14.9602 8.11824 15.0726 8.06192C15.1851 8.0056 15.2935 7.88491 15.398 7.69986C15.5104 7.51481 15.5988 7.23722 15.663 6.86712C15.7353 6.49701 15.7715 5.99817 15.7715 5.37059C15.7715 4.88784 15.7353 4.52176 15.663 4.27234C15.5988 4.01487 15.4984 3.84188 15.3618 3.75338C15.2253 3.65683 15.0525 3.60856 14.8437 3.60856C14.5706 3.60856 14.3256 3.68499 14.1087 3.83786V7.74814C14.1971 7.89296 14.2975 7.99756 14.4099 8.06192C14.5224 8.11824 14.6389 8.1464 14.7594 8.1464Z" fill="#333333"/>
<path d="M19.2517 9.02742C19.0267 9.02742 18.8099 9.00731 18.601 8.96708C18.4002 8.9349 18.2195 8.85846 18.0588 8.73777C17.8982 8.60904 17.7696 8.42399 17.6732 8.18261C17.5768 7.94124 17.5286 7.61136 17.5286 7.19297C17.5286 6.77459 17.5728 6.43667 17.6612 6.1792C17.7495 5.91369 17.87 5.71254 18.0227 5.57576C18.1753 5.43094 18.348 5.33439 18.5408 5.28611C18.7335 5.23784 18.9303 5.2137 19.1312 5.2137C19.2597 5.2137 19.4083 5.22577 19.577 5.24991C19.7537 5.27404 19.9023 5.31427 20.0228 5.37059C20.0228 5.37059 20.0228 5.31427 20.0228 5.20163C20.0228 5.08899 20.0228 4.96025 20.0228 4.81543C20.0228 4.66256 20.0228 4.5298 20.0228 4.41716C20.0228 4.22406 19.9907 4.07924 19.9264 3.98269C19.8702 3.87809 19.7858 3.80568 19.6734 3.76545C19.5689 3.71717 19.4364 3.69304 19.2758 3.69304C18.9625 3.69304 18.6613 3.7212 18.3721 3.77752C18.0829 3.83384 17.85 3.89821 17.6732 3.97062C17.617 3.87407 17.5809 3.77752 17.5648 3.68097C17.5487 3.57637 17.5407 3.48385 17.5407 3.40339C17.5407 3.34707 17.5487 3.28672 17.5648 3.22236C17.5889 3.15799 17.625 3.10971 17.6732 3.07753C17.7777 3.01316 17.9945 2.94477 18.3239 2.87236C18.6532 2.7919 19.0468 2.75167 19.5047 2.75167C20.0268 2.75167 20.4043 2.86029 20.6373 3.07753C20.8783 3.29477 20.9988 3.67694 20.9988 4.22406V4.8637C20.9988 5.32232 20.9947 5.78495 20.9867 6.25161C20.9867 6.71022 20.9827 7.1447 20.9747 7.55504C20.9666 7.95733 20.9506 8.31134 20.9265 8.61709C20.7658 8.71364 20.5449 8.80616 20.2638 8.89467C19.9826 8.98317 19.6453 9.02742 19.2517 9.02742ZM19.348 8.20675C19.4766 8.20675 19.6011 8.18663 19.7216 8.1464C19.8421 8.10618 19.9264 8.0579 19.9746 8.00158C19.9907 7.87285 19.9987 7.69584 19.9987 7.47055C20.0067 7.24527 20.0107 7.00792 20.0107 6.7585C20.0188 6.50908 20.0228 6.27575 20.0228 6.05851C19.9425 6.01828 19.8461 5.99012 19.7336 5.97403C19.6292 5.95794 19.5368 5.94989 19.4565 5.94989C19.328 5.94989 19.2075 5.96598 19.095 5.99817C18.9906 6.0223 18.8982 6.07863 18.8179 6.16713C18.7376 6.24759 18.6733 6.36828 18.6251 6.52919C18.5769 6.69011 18.5528 6.90332 18.5528 7.16884C18.5528 7.38607 18.5689 7.56308 18.601 7.69986C18.6412 7.83664 18.6974 7.94526 18.7697 8.02572C18.842 8.09813 18.9263 8.1464 19.0227 8.17054C19.1191 8.19468 19.2276 8.20675 19.348 8.20675Z" fill="#333333"/>
<path d="M23.7642 9.02742C23.2822 9.02742 22.9007 8.93087 22.6195 8.73777C22.3464 8.53663 22.1536 8.19066 22.0412 7.69986C21.9368 7.20102 21.8845 6.50908 21.8845 5.62404V4.45337C21.8845 3.67292 21.9287 3.04535 22.0171 2.57064C22.1054 2.09594 22.2581 1.72181 22.4749 1.44825C22.6918 1.17469 22.9971 0.961477 23.3907 0.808606L25.5113 0C25.5916 0.217238 25.6438 0.3862 25.6679 0.506887C25.7001 0.619529 25.7081 0.70401 25.692 0.760331C25.676 0.816652 25.6358 0.872973 25.5715 0.929294C25.5153 0.985614 25.4149 1.03791 25.2703 1.08619L23.8244 1.59307C23.5112 1.69767 23.2662 1.84652 23.0894 2.03962C22.9208 2.23272 22.8003 2.49018 22.728 2.81202C22.6557 3.13385 22.6155 3.55223 22.6075 4.06717C22.7681 3.60856 22.9569 3.27465 23.1738 3.06546C23.3907 2.85627 23.6999 2.75167 24.1016 2.75167C24.463 2.75167 24.7643 2.84822 25.0052 3.04132C25.2542 3.22638 25.439 3.53614 25.5595 3.97062C25.688 4.39705 25.7523 4.98037 25.7523 5.72059C25.7523 6.50908 25.676 7.14872 25.5233 7.63952C25.3707 8.12227 25.1458 8.47628 24.8486 8.70157C24.5514 8.9188 24.1899 9.02742 23.7642 9.02742ZM23.7762 8.19468C23.9128 8.19468 24.0373 8.1625 24.1498 8.09813C24.2622 8.02572 24.3586 7.90503 24.4389 7.73607C24.5193 7.55906 24.5795 7.31768 24.6197 7.01194C24.6679 6.69815 24.692 6.30793 24.692 5.84127C24.692 5.25393 24.6598 4.79934 24.5956 4.47751C24.5393 4.14763 24.451 3.91832 24.3305 3.78959C24.21 3.65281 24.0493 3.58442 23.8485 3.58442C23.6557 3.58442 23.4911 3.65683 23.3545 3.80166C23.218 3.93843 23.1095 4.17176 23.0292 4.50164C22.9569 4.83152 22.9208 5.28611 22.9208 5.86541C22.9208 6.50908 22.9529 6.99987 23.0172 7.3378C23.0814 7.67572 23.1778 7.90503 23.3063 8.02572C23.4348 8.13836 23.5915 8.19468 23.7762 8.19468Z" fill="#333333"/>
<path d="M28.3271 9.02742C28.0218 9.02742 27.7487 8.98719 27.5078 8.90673C27.2748 8.83432 27.078 8.6895 26.9174 8.47226C26.7567 8.25502 26.6362 7.94124 26.5559 7.5309C26.4756 7.11251 26.4354 6.5654 26.4354 5.88955C26.4354 4.78727 26.6121 3.99073 26.9655 3.49994C27.319 3.00109 27.809 2.75167 28.4355 2.75167C28.8613 2.75167 29.2107 2.84018 29.4838 3.01719C29.7649 3.19419 29.9738 3.50798 30.1103 3.95855C30.2469 4.40912 30.3152 5.04071 30.3152 5.85334C30.3152 6.97976 30.1465 7.79239 29.8091 8.29123C29.4717 8.78202 28.9777 9.02742 28.3271 9.02742ZM28.3512 8.19468C28.5279 8.19468 28.6805 8.13434 28.809 8.01365C28.9456 7.88491 29.054 7.65159 29.1344 7.31366C29.2147 6.97574 29.2549 6.49299 29.2549 5.86541C29.2549 5.22174 29.2227 4.73899 29.1585 4.41716C29.0942 4.08728 29.0018 3.86602 28.8813 3.75338C28.7608 3.64074 28.6002 3.58442 28.3994 3.58442C28.2227 3.58442 28.066 3.64878 27.9295 3.77752C27.7929 3.89821 27.6845 4.12751 27.6041 4.46544C27.5319 4.80336 27.4957 5.28611 27.4957 5.91369C27.4957 6.40448 27.5158 6.80275 27.556 7.10849C27.5961 7.41423 27.6483 7.64756 27.7126 7.80848C27.7849 7.96135 27.8773 8.06595 27.9897 8.12227C28.1022 8.17054 28.2227 8.19468 28.3512 8.19468Z" fill="#333333"/>
<path d="M31.9796 8.90673V3.71717H30.6663C30.6663 3.46775 30.6703 3.2827 30.6783 3.16201C30.6864 3.04132 30.7064 2.96489 30.7386 2.93271C30.7707 2.89248 30.8189 2.87236 30.8832 2.87236H34.2689C34.2689 3.12178 34.2649 3.31086 34.2569 3.43959C34.2489 3.56028 34.2288 3.63672 34.1966 3.6689C34.1725 3.70108 34.1243 3.71717 34.0521 3.71717H32.9556V8.71363C32.9556 8.778 32.9435 8.82225 32.9194 8.84639C32.8953 8.87053 32.815 8.88662 32.6785 8.89467C32.5419 8.90271 32.309 8.90673 31.9796 8.90673Z" fill="#333333"/>
<path d="M36.4073 9.02742C36.1824 9.02742 35.9656 9.00731 35.7567 8.96708C35.5559 8.9349 35.3751 8.85846 35.2145 8.73777C35.0538 8.60904 34.9253 8.42399 34.8289 8.18261C34.7325 7.94124 34.6843 7.61136 34.6843 7.19297C34.6843 6.77459 34.7285 6.43667 34.8169 6.1792C34.9052 5.91369 35.0257 5.71254 35.1784 5.57576C35.331 5.43094 35.5037 5.33439 35.6965 5.28611C35.8892 5.23784 36.086 5.2137 36.2869 5.2137C36.4154 5.2137 36.564 5.22577 36.7327 5.24991C36.9094 5.27404 37.058 5.31427 37.1785 5.37059C37.1785 5.37059 37.1785 5.31427 37.1785 5.20163C37.1785 5.08899 37.1785 4.96025 37.1785 4.81543C37.1785 4.66256 37.1785 4.5298 37.1785 4.41716C37.1785 4.22406 37.1464 4.07924 37.0821 3.98269C37.0259 3.87809 36.9415 3.80568 36.8291 3.76545C36.7246 3.71717 36.5921 3.69304 36.4314 3.69304C36.1182 3.69304 35.8169 3.7212 35.5278 3.77752C35.2386 3.83384 35.0056 3.89821 34.8289 3.97062C34.7727 3.87407 34.7366 3.77752 34.7205 3.68097C34.7044 3.57637 34.6964 3.48385 34.6964 3.40339C34.6964 3.34707 34.7044 3.28672 34.7205 3.22236C34.7446 3.15799 34.7807 3.10971 34.8289 3.07753C34.9334 3.01316 35.1502 2.94477 35.4796 2.87236C35.8089 2.7919 36.2025 2.75167 36.6604 2.75167C37.1825 2.75167 37.56 2.86029 37.793 3.07753C38.034 3.29477 38.1545 3.67694 38.1545 4.22406V4.8637C38.1545 5.32232 38.1504 5.78495 38.1424 6.25161C38.1424 6.71022 38.1384 7.1447 38.1304 7.55504C38.1223 7.95733 38.1063 8.31134 38.0822 8.61709C37.9215 8.71364 37.7006 8.80616 37.4195 8.89467C37.1383 8.98317 36.8009 9.02742 36.4073 9.02742ZM36.5037 8.20675C36.6323 8.20675 36.7568 8.18663 36.8773 8.1464C36.9977 8.10618 37.0821 8.0579 37.1303 8.00158C37.1464 7.87285 37.1544 7.69584 37.1544 7.47055C37.1624 7.24527 37.1664 7.00792 37.1664 6.7585C37.1745 6.50908 37.1785 6.27575 37.1785 6.05851C37.0982 6.01828 37.0018 5.99012 36.8893 5.97403C36.7849 5.95794 36.6925 5.94989 36.6122 5.94989C36.4837 5.94989 36.3632 5.96598 36.2507 5.99817C36.1463 6.0223 36.0539 6.07863 35.9736 6.16713C35.8933 6.24759 35.829 6.36828 35.7808 6.52919C35.7326 6.69011 35.7085 6.90332 35.7085 7.16884C35.7085 7.38607 35.7246 7.56308 35.7567 7.69986C35.7969 7.83664 35.8531 7.94526 35.9254 8.02572C35.9977 8.09813 36.082 8.1464 36.1784 8.17054C36.2748 8.19468 36.3832 8.20675 36.5037 8.20675Z" fill="#333333"/>
<path d="M39.2089 8.90673V3.06546C39.2089 3.00109 39.221 2.95684 39.2451 2.93271C39.2692 2.90857 39.3495 2.89248 39.4861 2.88443C39.6306 2.87639 39.8676 2.87236 40.1969 2.87236V5.46714H41.7754V3.06546C41.7754 3.00109 41.7874 2.95684 41.8115 2.93271C41.8436 2.90857 41.928 2.89248 42.0645 2.88443C42.2091 2.87639 42.4421 2.87236 42.7634 2.87236V8.71363C42.7634 8.778 42.7513 8.82225 42.7272 8.84639C42.7031 8.87053 42.6228 8.88662 42.4863 8.89467C42.3497 8.90271 42.1127 8.90673 41.7754 8.90673V6.31195H40.1969V8.71363C40.1969 8.778 40.1849 8.82225 40.1608 8.84639C40.1367 8.87053 40.0564 8.88662 39.9198 8.89467C39.7833 8.90271 39.5463 8.90673 39.2089 8.90673Z" fill="#333333"/>
<path d="M45.7181 9.02742C45.4129 9.02742 45.1398 8.98719 44.8988 8.90673C44.6658 8.83432 44.469 8.6895 44.3084 8.47226C44.1477 8.25502 44.0272 7.94124 43.9469 7.5309C43.8666 7.11251 43.8264 6.5654 43.8264 5.88955C43.8264 4.78727 44.0031 3.99073 44.3566 3.49994C44.71 3.00109 45.2 2.75167 45.8266 2.75167C46.2523 2.75167 46.6017 2.84018 46.8748 3.01719C47.156 3.19419 47.3648 3.50798 47.5014 3.95855C47.6379 4.40912 47.7062 5.04071 47.7062 5.85334C47.7062 6.97976 47.5375 7.79239 47.2001 8.29123C46.8628 8.78202 46.3688 9.02742 45.7181 9.02742ZM45.7422 8.19468C45.9189 8.19468 46.0716 8.13434 46.2001 8.01365C46.3366 7.88491 46.4451 7.65159 46.5254 7.31366C46.6057 6.97574 46.6459 6.49299 46.6459 5.86541C46.6459 5.22174 46.6138 4.73899 46.5495 4.41716C46.4852 4.08728 46.3929 3.86602 46.2724 3.75338C46.1519 3.64074 45.9912 3.58442 45.7904 3.58442C45.6137 3.58442 45.457 3.64878 45.3205 3.77752C45.1839 3.89821 45.0755 4.12751 44.9952 4.46544C44.9229 4.80336 44.8867 5.28611 44.8867 5.91369C44.8867 6.40448 44.9068 6.80275 44.947 7.10849C44.9871 7.41423 45.0394 7.64756 45.1036 7.80848C45.1759 7.96135 45.2683 8.06595 45.3807 8.12227C45.4932 8.17054 45.6137 8.19468 45.7422 8.19468Z" fill="#333333"/>
<path d="M50.4796 8.90673V3.06546C50.4796 3.00914 50.4997 2.96489 50.5399 2.93271C50.5881 2.89248 50.6764 2.87236 50.805 2.87236H51.9135C52.2267 2.87236 52.528 2.90857 52.8171 2.98098C53.1063 3.04535 53.3433 3.1781 53.528 3.37925C53.7128 3.57235 53.8051 3.87005 53.8051 4.27234C53.8051 4.5298 53.765 4.75106 53.6847 4.93612C53.6043 5.12117 53.5079 5.27002 53.3955 5.38266C53.2911 5.48726 53.1786 5.56772 53.0581 5.62404C52.9457 5.68036 52.8533 5.71254 52.781 5.72059C52.8452 5.72863 52.9095 5.7407 52.9738 5.75679C53.0461 5.76484 53.1103 5.77691 53.1666 5.793C53.2147 5.80909 53.283 5.83725 53.3714 5.87748C53.4678 5.90966 53.5682 5.97001 53.6726 6.05851C53.777 6.13897 53.8654 6.25563 53.9377 6.4085C54.018 6.55333 54.0582 6.74643 54.0582 6.9878C54.0582 7.34987 53.9819 7.67572 53.8292 7.96537C53.6766 8.25502 53.4437 8.48433 53.1304 8.65329C52.8171 8.82225 52.4155 8.90673 51.9255 8.90673H50.4796ZM51.9376 8.1102C52.2589 8.1102 52.5079 8.01365 52.6846 7.82055C52.8693 7.62745 52.9617 7.32975 52.9617 6.92746C52.9617 6.73436 52.9296 6.57747 52.8653 6.45678C52.8091 6.33609 52.7127 6.24759 52.5762 6.19127C52.4396 6.13495 52.2508 6.10679 52.0099 6.10679C51.8894 6.10679 51.7769 6.11081 51.6725 6.11885C51.5761 6.1269 51.4917 6.13092 51.4194 6.13092V8.09813C51.4998 8.10618 51.5881 8.1102 51.6845 8.1102C51.789 8.1102 51.8733 8.1102 51.9376 8.1102ZM51.4194 5.443C51.4998 5.45105 51.5801 5.45507 51.6604 5.45507C51.7488 5.45507 51.8371 5.45507 51.9255 5.45507C52.0781 5.45507 52.2187 5.42289 52.3472 5.35852C52.4757 5.29416 52.5802 5.18956 52.6605 5.04474C52.7489 4.89187 52.793 4.69072 52.793 4.4413C52.793 4.2482 52.7649 4.09935 52.7087 3.99476C52.6605 3.88211 52.5922 3.80166 52.5039 3.75338C52.4235 3.69706 52.3271 3.66488 52.2147 3.65683C52.1022 3.64878 51.9898 3.64476 51.8773 3.64476C51.805 3.64476 51.7327 3.64476 51.6604 3.64476C51.5962 3.64476 51.5399 3.64878 51.4917 3.65683C51.4435 3.65683 51.4194 3.65683 51.4194 3.65683V5.443Z" fill="#333333"/>
<path d="M132 12.9953C132 15.3758 130.181 17.2427 127.794 17.2427C125.453 17.2427 123.566 15.3758 123.566 12.9953C123.566 10.6616 125.43 8.79462 127.794 8.79462C130.181 8.79462 132 10.6616 132 12.9953ZM124.634 12.9953C124.634 14.8623 125.976 16.3559 127.84 16.3559C129.636 16.3559 130.954 14.8623 130.954 13.0187C130.954 11.1517 129.636 9.63477 127.817 9.63477C125.976 9.63477 124.634 11.1517 124.634 12.9953ZM127.158 15.1891H126.203V10.9883C126.567 10.9183 127.112 10.8716 127.771 10.8716C128.544 10.8716 128.885 10.9883 129.204 11.175C129.431 11.3617 129.613 11.6885 129.613 12.1085C129.613 12.5753 129.272 12.9253 128.772 13.0887V13.1354C129.181 13.2987 129.386 13.6021 129.522 14.1622C129.636 14.7923 129.727 15.049 129.818 15.2124H128.795C128.681 15.049 128.59 14.6756 128.476 14.1856C128.408 13.7188 128.158 13.5088 127.635 13.5088H127.18L127.158 15.1891ZM127.18 12.8086H127.635C128.158 12.8086 128.59 12.622 128.59 12.2019C128.59 11.8285 128.317 11.5718 127.726 11.5718C127.476 11.5718 127.294 11.5951 127.203 11.6184V12.8086H127.18Z" fill="#333333"/>
</svg>
