<svg width="261" height="28" viewBox="0 0 261 28" fill="none" xmlns="http://www.w3.org/2000/svg">
<path fill-rule="evenodd" clip-rule="evenodd" d="M135.427 0.5H159.201L154.219 10.7267C152.094 14.6193 145.757 17.5209 137.515 17.5209H120.005L115.133 27.4646H101.726L109.968 10.6206H140.885L142.387 7.57731H111.506C113.485 3.54329 119.932 0.5 128.357 0.5H135.427ZM210.082 0.5H186.308H179.202C170.776 0.5 164.329 3.54329 162.351 7.57731H193.232L191.729 10.6206H160.85L157.479 17.5209H170.85L148.431 27.4646H171.252L186.895 20.4934L183.488 27.4646C191.729 27.4646 198.067 24.5629 200.192 20.6704L205.1 10.6206L206.603 7.57731L207.445 5.80799L210.082 0.5ZM33.7377 0.5H57.475L51.7971 12.1776L44.3243 13.6992L50.0754 15.6101L47.6577 20.5642C45.6064 24.5275 39.1958 27.5 30.8804 27.5H0L4.87203 17.5564L16.7773 20.5996H34.2871L35.7891 17.5564H18.2792L6.74022 13.6992L21.6126 10.656H39.1226L40.6244 7.61275H23.1145L8.27876 10.656C8.38867 10.4083 8.75494 9.66517 9.78061 7.61275C11.7587 3.57866 18.2059 0.535436 26.6312 0.535436L33.7377 0.5ZM203.488 27.4646L211.73 10.6206H225.138L220.303 20.5642H237.812L244.149 7.57731H213.27C215.907 2.69396 223.16 0.5 230.119 0.5H261L251.183 20.5642H257.74C255.688 24.4921 249.278 27.4646 240.963 27.4646H203.488ZM50.8447 27.4646L59.0868 10.656H90.0038L91.506 7.61275H60.5887C62.5668 3.57866 69.0137 0.535436 77.439 0.535436H108.32L100.077 17.3794C100.077 17.3794 100.554 16.424 98.576 20.4227C96.5977 24.4567 90.1507 27.4646 81.7616 27.5L86.6334 17.5564H69.1237L64.2518 27.5H50.8447V27.4646Z" fill="#333333"/>
</svg>
