<svg width="64" height="63" viewBox="0 0 64 63" fill="none" xmlns="http://www.w3.org/2000/svg">
<g clip-path="url(#clip0_2_331)">
<path d="M44.2701 0.326068C43.9262 0.145858 43.5332 0.134766 43.1475 0.134766C42.7366 0.134766 42.358 0.391534 42.0735 0.693183L10.4822 34.1605C10.2357 34.4213 10.0087 34.7484 10.0087 35.1013C10.0087 35.4543 9.98916 35.8177 10.1316 36.1467C10.2741 36.4757 10.5101 36.7559 10.8105 36.9527C11.1108 37.1495 11.4624 37.2541 11.8219 37.2541H25.1222L25.1248 37.2576L17.9604 60.4725C17.9604 60.8687 17.8533 61.2948 18.0045 61.681C18.1557 62.0673 18.4337 62.3911 18.7931 62.5996C19.1526 62.8082 19.5723 62.8295 19.9838 62.8295C20.3953 62.8295 20.7744 62.5728 21.0593 62.2708L52.6506 28.8034C52.8971 28.5427 53.1241 28.2156 53.1241 27.8626C53.1241 27.5097 53.1436 27.1463 53.0012 26.8173C52.8587 26.4883 52.6227 26.2081 52.3223 26.0113C52.022 25.8145 51.6704 25.7098 51.3109 25.7098H38.0106L38.008 25.7063L45.1724 2.49535C45.1724 2.09867 45.2794 1.6721 45.1277 1.28551C44.9759 0.898918 44.6303 0.534279 44.2701 0.326068Z" stroke="#0178F3" stroke-linecap="round" stroke-linejoin="round"/>
</g>
<defs>
<clipPath id="clip0_2_331">
<rect width="64" height="63" fill="white"/>
</clipPath>
</defs>
</svg>
