<svg width="40" height="40" viewBox="0 0 40 40" fill="none" xmlns="http://www.w3.org/2000/svg">
<circle cx="20" cy="20" r="19.5" stroke="#7D7D7D"/>
<path d="M10.797 19.677L10.7886 19.6737L10.7801 19.6708C10.7749 19.669 10.7741 19.6685 10.771 19.6636C10.7655 19.6548 10.7578 19.6353 10.7578 19.6076C10.7578 19.5798 10.7655 19.5603 10.771 19.5516C10.7741 19.5466 10.7749 19.5462 10.7801 19.5443L10.7916 19.5404L10.8028 19.5359L28.6959 12.3947L26.6417 14.3999L16.6983 20.6073C16.0484 20.9045 15.8262 21.6834 16.1442 22.3082L17.0871 25.8753C17.1324 26.0566 17.2327 26.2202 17.3896 26.3323C17.5447 26.4431 17.7243 26.4811 17.8881 26.4658C18.1861 26.4378 18.5307 26.2034 18.5503 25.7889L18.7873 23.8324L18.791 23.8024V23.7722C18.791 23.5618 18.9133 23.3549 19.125 23.1354L27.2706 15.1835C27.2951 15.1656 27.3142 15.1496 27.3241 15.1414C27.3252 15.1405 27.3262 15.1397 27.327 15.139C27.3611 15.1108 27.4013 15.0758 27.4448 15.0369C27.5325 14.9586 27.6457 14.8539 27.7736 14.7338C28.0299 14.4929 28.3533 14.1817 28.6659 13.8766C28.9782 13.5718 29.2821 13.2704 29.499 13.0493C29.6063 12.94 29.6971 12.8454 29.7575 12.7786C29.783 12.7504 29.8198 12.7089 29.8481 12.6693C29.8558 12.6585 29.8707 12.6371 29.8857 12.6095C29.8932 12.5957 29.9053 12.572 29.9167 12.5414C29.9259 12.5166 29.9474 12.4542 29.9484 12.3713C29.9494 12.2835 29.9251 12.1133 29.7714 11.9829C29.7666 11.9789 29.7618 11.975 29.757 11.9712L30.2236 11.7849C30.2265 11.7868 30.2302 11.7897 30.2346 11.7939C30.2474 11.8062 30.2588 11.8235 30.2652 11.8421C30.2711 11.8591 30.2715 11.8728 30.2697 11.883C30.2696 11.8833 30.2696 11.8837 30.2695 11.8841L26.7533 29.1981L26.7533 29.1981L26.7525 29.2025C26.7495 29.2179 26.7446 29.2245 26.7418 29.2277C26.738 29.232 26.7317 29.2368 26.7226 29.2402C26.7132 29.2436 26.7035 29.2444 26.6951 29.2433C26.6878 29.2422 26.6797 29.2395 26.6701 29.2321L26.6701 29.232L26.6646 29.2279L21.9511 25.6836C21.4891 25.3281 20.8084 25.2621 20.3499 25.7133L17.7394 27.9169C17.7195 27.9311 17.6988 27.9398 17.6799 27.944C17.672 27.9458 17.665 27.9467 17.6592 27.947L17.658 27.9406L17.6507 27.9164L15.8123 21.8137L15.7416 21.5792L15.513 21.4913L10.797 19.677Z" stroke="#7D7D7D"/>
</svg>
