<svg width="40" height="40" viewBox="0 0 40 40" fill="none" xmlns="http://www.w3.org/2000/svg">
<circle cx="20" cy="20" r="19.5" stroke="#7D7D7D"/>
<path fill-rule="evenodd" clip-rule="evenodd" d="M30.0394 14.2583C30.1991 13.7363 30.0394 13.3567 29.3323 13.3567H26.9828C26.3897 13.3567 26.116 13.6889 25.9563 14.0448C25.9563 14.0448 24.7473 17.0815 23.0593 19.0507C22.5118 19.6201 22.2609 19.8099 21.9644 19.8099C21.8047 19.8099 21.5994 19.6201 21.5994 19.0981V14.2345C21.5994 13.6177 21.4169 13.333 20.9151 13.333H17.2197C16.8548 13.333 16.6266 13.6177 16.6266 13.9024C16.6266 14.4955 17.4706 14.6379 17.5619 16.2986V19.9048C17.5619 20.6877 17.425 20.83 17.1285 20.83C16.3301 20.83 14.3912 17.7695 13.2278 14.282C12.9997 13.594 12.7716 13.333 12.1785 13.333H9.80619C9.12187 13.333 9.00781 13.6652 9.00781 14.021C9.00781 14.6616 9.80619 17.8882 12.726 22.1586C14.6649 25.0768 17.425 26.6426 19.9114 26.6426C21.4169 26.6426 21.5994 26.2867 21.5994 25.6936V23.4872C21.5994 22.7755 21.7363 22.6569 22.2153 22.6569C22.5575 22.6569 23.1734 22.8467 24.5648 24.2464C26.1616 25.9071 26.4353 26.6663 27.3249 26.6663H29.6745C30.3588 26.6663 30.6781 26.3105 30.4957 25.6225C30.2904 24.9344 29.5148 23.938 28.5111 22.7518C27.9636 22.0875 27.1425 21.352 26.8915 20.9961C26.5494 20.5216 26.6406 20.3318 26.8915 19.9048C26.8687 19.9048 29.7429 15.6818 30.0394 14.2583Z" stroke="#7D7D7D"/>
</svg>
